<?xml version="1.0" encoding="utf-8"?>
<!-- Generator: Adobe Illustrator 15.0.2, SVG Export Plug-In . SVG Version: 6.00 Build 0)  -->
<!DOCTYPE svg PUBLIC "-//W3C//DTD SVG 1.1 Basic//EN" "http://www.w3.org/Graphics/SVG/1.1/DTD/svg11-basic.dtd">
<svg version="1.1" baseProfile="basic" id="Layer_1"
	 xmlns="http://www.w3.org/2000/svg" xmlns:xlink="http://www.w3.org/1999/xlink" x="0px" y="0px" width="283.465px"
	 height="283.465px" viewBox="0 0 283.465 283.465" xml:space="preserve">
<path fill="#DD4917" d="M113.391,166.5h3.544v3.543h-3.544V166.5z M127.508,166.5h-3.544v3.543h3.544V166.5z M198.426,141.732
	c0-31.261-25.434-56.693-56.695-56.693c-6.144,0-12.06,0.986-17.604,2.802v43.151h6.945c1.957,0,3.543,1.586,3.543,3.543v10.63
	v10.63v3.543h-3.543l0,0v21.26h-21.26v-21.26h-3.543v-3.543v-10.63v-10.63c0-1.957,1.586-3.543,3.543-3.543h7.229V90.705
	c-18.925,9.194-32.002,28.611-32.002,51.028c0,31.261,25.432,56.693,56.691,56.693c4.923,0,9.7-0.632,14.258-1.816v-27.769
	c-2.116-1.227-3.544-3.51-3.544-6.131v-15.419c-6.324-2.707-10.768-8.991-10.768-16.295c0-9.769,7.947-17.716,17.717-17.716
	c9.769,0,17.717,7.948,17.717,17.716c0,7.197-4.315,13.4-10.492,16.17v15.544c0,2.621-1.428,4.904-3.544,6.131v25.41
	C183.787,185.803,198.426,165.446,198.426,141.732z"/>
</svg>
